<?xml version="1.0" encoding="UTF-8"?>
<!DOCTYPE svg PUBLIC "-//W3C//DTD SVG 1.1//EN" "http://www.w3.org/Graphics/SVG/1.1/DTD/svg11.dtd">
<!-- Creator: CorelDRAW -->
<svg xmlns="http://www.w3.org/2000/svg" xml:space="preserve" width="3.009cm" height="2cm" version="1.1" style="shape-rendering:geometricPrecision; text-rendering:geometricPrecision; image-rendering:optimizeQuality; fill-rule:evenodd; clip-rule:evenodd"
viewBox="0 0 3009 2000"
 xmlns:xlink="http://www.w3.org/1999/xlink"
 xmlns:xodm="http://www.corel.com/coreldraw/odm/2003">
 <defs>
  <style type="text/css">
   <![CDATA[
    .fil0 {fill:#FD5A00}
   ]]>
  </style>
 </defs>
 <g id="Camada_x0020_1">
  <metadata id="CorelCorpID_0Corel-Layer"/>
  <path class="fil0" d="M704.04 1191.71l-424.76 4.48 0.86 -241.48c182.43,-115.46 105.38,-357.07 -86.57,-359.39 -100.66,-1.23 -167.55,61.35 -192,138.34 -15.17,47.78 -9.71,99.67 10.63,139.04 26.4,51.11 59.86,52.37 75.92,95.12 0.17,93.54 -6.18,206.93 -0.02,297.88 6.84,101.14 75.56,124.66 179.6,123.38 623.79,-7.65 564.06,61.13 656.7,-243.45l207.92 -706.98c24.65,49.16 299.88,1218.95 316.91,1293.9 22.65,99.63 27.92,258.03 147.29,254.36 119.41,-3.66 115.58,-151.29 142.08,-260.79 30.09,-124.28 116.15,-577.75 153.26,-648.72 35.31,58.07 67.83,136.2 99.06,198.23 79.13,157.17 134.94,116.54 478.04,116.1 261.71,-0.34 125.33,12.86 238.94,70.3 166.42,84.12 347.42,-81.22 279.15,-256.92 -43.66,-112.35 -221.54,-215.53 -367.68,-5.95l-451.63 1.67c-50.58,-100.09 -97.36,-200.02 -149.91,-303.45 -40.75,-80.18 -122.78,-272.01 -238.86,-151.83 -32.12,33.26 -169.23,661.39 -180.4,745.18 -25.78,-39.05 -170.1,-667.78 -179.35,-705.89 -28.54,-117.56 -146.46,-654.95 -181.02,-712.54 -26.3,-43.81 -78.62,-73.96 -138.85,-49.42 -55.76,22.73 -65.75,77.38 -84.48,139.39 -40.46,133.92 -281.82,979.72 -310.83,1029.44z"/>
 </g>
</svg>
