<?xml version="1.0" encoding="UTF-8"?>
<!DOCTYPE svg PUBLIC "-//W3C//DTD SVG 1.1//EN" "http://www.w3.org/Graphics/SVG/1.1/DTD/svg11.dtd">
<!-- Creator: CorelDRAW -->
<svg xmlns="http://www.w3.org/2000/svg" xml:space="preserve" width="13.742cm" height="2.47cm" version="1.1" style="shape-rendering:geometricPrecision; text-rendering:geometricPrecision; image-rendering:optimizeQuality; fill-rule:evenodd; clip-rule:evenodd"
viewBox="0 0 13742 2470"
 xmlns:xlink="http://www.w3.org/1999/xlink"
 xmlns:xodm="http://www.corel.com/coreldraw/odm/2003">
 <defs>
  <style type="text/css">
   <![CDATA[
    .fil1 {fill:#FEFEFE}
    .fil0 {fill:#FD5A00}
   ]]>
  </style>
 </defs>
 <g id="Camada_x0020_1">
  <metadata id="CorelCorpID_0Corel-Layer"/>
  <g id="_2296765840864">
   <path class="fil0" d="M883.19 1474.93l-531.89 5.61 1.07 -302.39c228.45,-144.58 131.96,-447.12 -108.39,-450.04 -126.05,-1.52 -209.82,76.83 -240.43,173.24 -19,59.83 -12.16,124.81 13.31,174.11 33.05,64 74.95,65.57 95.06,119.11 0.22,117.13 -7.73,259.13 -0.02,373 8.57,126.66 94.62,156.11 224.9,154.51 781.12,-9.58 706.32,76.54 822.32,-304.86l260.37 -885.29c30.86,61.57 375.51,1526.4 396.84,1620.25 28.36,124.75 34.96,323.1 184.44,318.51 149.53,-4.59 144.72,-189.45 177.92,-326.57 37.67,-155.62 145.43,-723.47 191.91,-812.33 44.21,72.72 84.93,170.55 124.03,248.22 99.1,196.82 168.99,145.94 598.62,145.38 327.72,-0.42 156.94,16.11 299.21,88.03 208.38,105.35 435.04,-101.7 349.55,-321.71 -54.68,-140.69 -277.42,-269.9 -460.41,-7.45l-565.54 2.09c-63.34,-125.33 -121.91,-250.47 -187.73,-379.99 -51.02,-100.4 -153.74,-340.61 -299.09,-190.12 -40.23,41.65 -211.91,828.2 -225.91,933.12 -32.28,-48.89 -213,-836.2 -224.58,-883.92 -35.74,-147.21 -183.4,-820.13 -226.68,-892.25 -32.92,-54.87 -98.45,-92.62 -173.86,-61.88 -69.84,28.46 -82.34,96.89 -105.79,174.53 -50.67,167.7 -352.9,1226.83 -389.23,1289.09z"/>
   <path class="fil1" d="M7563.78 1050.3c-33.67,-22.49 -196.94,-271.55 -506.2,-105.21 -160.34,86.25 -251.5,234.93 -253.07,478.92 -1.54,241.11 77.49,400.56 238.39,478.85 89.84,43.72 186.02,62.42 296.23,44.14 132.38,-21.97 156.35,-72.21 222.37,-143.75l4.49 129.1 271.86 -0.79 -4.9 -1440.98 -272.27 -4.02 3.1 563.74zm-283.38 96.43c-138.73,39.02 -225.63,146.15 -200.82,330.39 20.17,149.76 134.44,264.47 311.29,234.97 295.82,-49.36 243.78,-665.02 -110.47,-565.36z"/>
   <path class="fil1" d="M9099.04 1927.32l294.47 5.04 -0.72 -475.48c210.44,8.93 444.19,-1.27 591.73,-93.35 142.46,-88.9 227.75,-269.37 164.14,-504.99 -47.5,-175.95 -178.58,-269.97 -376.19,-303 -115.99,-19.39 -552.12,-20.93 -673.91,-6.05l0.48 1377.83zm292.47 -700.29c219.38,-4.39 472.06,26.81 473.97,-221.17 1.95,-253.82 -263.81,-215.87 -475.95,-218.46l1.98 439.63z"/>
   <path class="fil1" d="M5575.62 1465.97l-285.19 8.12 -38.67 58.97c-20.39,35 -3.02,16.26 -34.22,51.96 -92.73,106.1 -247.05,131.06 -384.9,91.51 -167.4,-48.02 -286.74,-209.77 -288.24,-425.58 -1.52,-218.29 110.3,-373.21 265.44,-434.37 86.44,-34.07 203.16,-39.62 296.2,-4.64 135.2,50.83 110.51,83.69 181.14,181.44l288.44 -3.16c-9.03,-86.23 -48.49,-175.56 -88.88,-227.74 -155.63,-201.11 -423.31,-281.01 -687.72,-230.69 -771.22,146.77 -748.37,1306.08 13.44,1425.11 374.67,58.54 742.84,-174.81 763.16,-490.93z"/>
   <path class="fil1" d="M6055.49 916.41c-658.73,176.16 -421.09,1204.14 271.43,1028.37 254.46,-64.58 455.15,-316.54 375,-651.68 -59.6,-249.17 -317.66,-464.61 -646.43,-376.69zm84.56 228.9c-324.58,73.45 -223.58,672.71 119.51,573.42 286.77,-82.98 224.77,-651.32 -119.51,-573.42z"/>
   <path class="fil1" d="M13719.63 1627.74l-257.4 -19.65c-49.25,43.49 -37.15,65.7 -107.41,98.35 -129.68,60.26 -317.6,10.64 -367.44,-211.2l744.51 0.28c63.19,-730.99 -835.61,-820.07 -991.91,-216.3 -82.92,320.28 102.17,579.51 329.47,652.52 312.67,100.44 579.85,-76.48 650.18,-304zm-726.9 -312.01l464.6 4.88c-12.36,-122.56 -94.54,-224.84 -226.88,-224.72 -128.89,0.12 -238.68,103.22 -237.72,219.84z"/>
   <path class="fil1" d="M8957.21 1632.28l-252.7 -25.81c-75.11,66.38 -109.56,154.73 -282.2,113.68 -111.8,-26.58 -171.64,-106.98 -193.72,-225.37 178.34,2.06 654.34,10.94 716.82,-5.39 3.7,-0.97 8.65,-3.34 11.57,-4.24 68.25,-20.95 -15.52,-291.68 -73.43,-384.58 -206.01,-330.44 -790.19,-285.34 -903.18,190.82 -74.63,314.5 105.67,570.96 331.65,639.86 311.65,95.01 573.84,-76.99 645.19,-298.97zm-721.06 -317.2l455.6 7.07c-31.38,-342.68 -463.51,-243.97 -455.6,-7.07z"/>
   <path class="fil1" d="M10923.51 1812.66l5.01 114.56 274.92 6.55 -5.3 -1024.98 -267.21 0.09c-27.51,265.14 100.62,797.15 -193.53,808.16 -303.74,11.38 -143.47,-378.17 -191.91,-808l-263.3 0.42c-17.5,154.05 -15.5,768.66 36.6,874.76 44.3,90.21 142.19,171.84 288.3,175.62 204.78,5.3 263.28,-111.06 316.42,-147.18z"/>
   <path class="fil1" d="M12379.81 1606.45c6.28,119.95 -57.28,146.5 -185.48,134.07 -130.46,-12.66 -113.37,-69.73 -174.04,-141.98 -69.91,5.83 -191.04,7.18 -252.15,33.59 121.45,453.12 672.06,362.17 823.68,175.32 132.03,-162.71 63.49,-352.74 -92.06,-430.88 -243.05,-122.08 -443.77,-47.97 -449.04,-216.51 51.41,-47.63 93.45,-66.92 186.26,-56.85 92.42,10.05 106.97,42.41 127.38,120.04l266.98 -31.55c-43.63,-352.1 -579.86,-411.51 -782.68,-170.41 -120.27,142.99 -49.94,352.69 74.04,428.9 148.81,91.46 310.15,47.08 457.11,156.26z"/>
   <polygon class="fil1" points="11375.61,1928.8 11655.65,1932.07 11653.92,491.62 11376.29,487.68 "/>
  </g>
 </g>
</svg>
